<svg xmlns="http://www.w3.org/2000/svg" viewBox="0 0 920 520" style="width:100%;display:block;">
  <defs><clipPath id="clip-60-80"><rect x="67" y="99" width="161" height="314" rx="18"/></clipPath><clipPath id="clip-375-80"><rect x="382" y="99" width="161" height="314" rx="18"/></clipPath><clipPath id="clip-685-80"><rect x="692" y="99" width="161" height="314" rx="18"/></clipPath></defs>
  <rect width="920" height="520" fill="#EEF5F0"/>
  <text x="40" y="38" font-family="SF Pro Display, Helvetica, Arial, sans-serif" font-size="13" fill="#8A8A8E" font-weight="600" letter-spacing="1">FIRST LAUNCH</text>
  
  <!-- Phone shadow -->
  <rect x="63" y="83" width="175" height="340" rx="26" fill="rgba(0,0,0,0.12)"/>
  <!-- Phone body -->
  <rect x="60" y="80" width="175" height="340" rx="26" fill="#1A1A1A"/>
  <!-- Screen bg -->
  <rect x="67" y="99" width="161" height="314" rx="18" fill="#FFFFFF"/>
  <!-- Notch -->
  <rect x="112" y="80" width="70" height="22" rx="11" fill="#1A1A1A"/>
  <!-- Home bar -->
  <rect x="125" y="411" width="44" height="4" rx="2" fill="rgba(255,255,255,0.35)"/>
  <!-- Status bar: time -->
  <text x="75" y="113" font-family="SF Pro Display, Helvetica, Arial, sans-serif" font-size="9" fill="#1A1A1A" font-weight="600">9:41</text>
  <!-- Screen content -->
  <g clip-path="url(#clip-60-80)">
    
  <rect x="67" y="99" width="161" height="314" fill="#2A7850"/>
  <text x="147" y="209" text-anchor="middle" font-family="SF Pro Display, Helvetica, Arial, sans-serif" font-size="22" fill="#FFFFFF" font-weight="800">pockigo</text>
  <text x="147" y="231" text-anchor="middle" font-family="SF Pro Display, Helvetica, Arial, sans-serif" font-size="9" fill="rgba(255,255,255,0.75)" letter-spacing="2">TRAVEL SMARTER</text>
  <circle cx="147" cy="184" r="22" fill="rgba(255,255,255,0.2)"/>
  <text x="147" y="191" text-anchor="middle" font-size="20" fill="#FFFFFF">✈</text>
  <circle cx="135" cy="359" r="4" fill="#FFFFFF"/>
  <circle cx="147" cy="359" r="4" fill="rgba(255,255,255,0.4)"/>
  <circle cx="159" cy="359" r="4" fill="rgba(255,255,255,0.4)"/>
  </g>
  <!-- Label below phone -->
  <text x="147" y="442" text-anchor="middle" font-family="SF Pro Display, Helvetica, Arial, sans-serif" font-size="11" fill="#8A8A8E" font-weight="500">Splash Screen</text>
<line x1="239" y1="250" x2="371" y2="250" stroke="#CCCCCC" stroke-width="1.5" stroke-dasharray="4,3"/><polygon points="365,246 372,250 365,254" fill="#CCCCCC"/>
  <!-- Phone shadow -->
  <rect x="378" y="83" width="175" height="340" rx="26" fill="rgba(0,0,0,0.12)"/>
  <!-- Phone body -->
  <rect x="375" y="80" width="175" height="340" rx="26" fill="#1A1A1A"/>
  <!-- Screen bg -->
  <rect x="382" y="99" width="161" height="314" rx="18" fill="#FFFFFF"/>
  <!-- Notch -->
  <rect x="427" y="80" width="70" height="22" rx="11" fill="#1A1A1A"/>
  <!-- Home bar -->
  <rect x="440" y="411" width="44" height="4" rx="2" fill="rgba(255,255,255,0.35)"/>
  <!-- Status bar: time -->
  <text x="390" y="113" font-family="SF Pro Display, Helvetica, Arial, sans-serif" font-size="9" fill="#1A1A1A" font-weight="600">9:41</text>
  <!-- Screen content -->
  <g clip-path="url(#clip-375-80)">
    
  <rect x="382" y="99" width="161" height="314" fill="#FFFFFF"/>
  <rect x="382" y="99" width="161" height="130" fill="#EEF5F0"/>
  <text x="462" y="164" text-anchor="middle" font-size="36" fill="#2A7850">🗺</text>
  <text x="462" y="254" text-anchor="middle" font-family="SF Pro Display, Helvetica, Arial, sans-serif" font-size="13" fill="#1A1A1A" font-weight="700">Your Itinerary, Anywhere</text>
  <text x="462" y="273" text-anchor="middle" font-family="SF Pro Display, Helvetica, Arial, sans-serif" font-size="9" fill="#8A8A8E" text-anchor="middle">Access your travel plans</text>
  <text x="462" y="284" text-anchor="middle" font-family="SF Pro Display, Helvetica, Arial, sans-serif" font-size="9" fill="#8A8A8E" text-anchor="middle">offline, anytime.</text>
  <circle cx="450" cy="359" r="3" fill="#E5E5EA"/>
  <circle cx="462" cy="359" r="4" fill="#2A7850"/>
  <circle cx="474" cy="359" r="3" fill="#E5E5EA"/>
  <rect x="402" y="379" width="121" height="30" rx="15" fill="#2A7850"/>
  <text x="462" y="399" text-anchor="middle" font-family="SF Pro Display, Helvetica, Arial, sans-serif" font-size="10" fill="#FFFFFF" font-weight="600">Next</text>
  </g>
  <!-- Label below phone -->
  <text x="462" y="442" text-anchor="middle" font-family="SF Pro Display, Helvetica, Arial, sans-serif" font-size="11" fill="#8A8A8E" font-weight="500">Onboarding</text>
<line x1="554" y1="250" x2="681" y2="250" stroke="#CCCCCC" stroke-width="1.5" stroke-dasharray="4,3"/><polygon points="675,246 682,250 675,254" fill="#CCCCCC"/>
  <!-- Phone shadow -->
  <rect x="688" y="83" width="175" height="340" rx="26" fill="rgba(0,0,0,0.12)"/>
  <!-- Phone body -->
  <rect x="685" y="80" width="175" height="340" rx="26" fill="#1A1A1A"/>
  <!-- Screen bg -->
  <rect x="692" y="99" width="161" height="314" rx="18" fill="#FFFFFF"/>
  <!-- Notch -->
  <rect x="737" y="80" width="70" height="22" rx="11" fill="#1A1A1A"/>
  <!-- Home bar -->
  <rect x="750" y="411" width="44" height="4" rx="2" fill="rgba(255,255,255,0.35)"/>
  <!-- Status bar: time -->
  <text x="700" y="113" font-family="SF Pro Display, Helvetica, Arial, sans-serif" font-size="9" fill="#1A1A1A" font-weight="600">9:41</text>
  <!-- Screen content -->
  <g clip-path="url(#clip-685-80)">
    
  <rect x="692" y="99" width="161" height="314" fill="#FFFFFF"/>
  <rect x="692" y="99" width="161" height="60" fill="#2A7850"/>
  <text x="702" y="135" font-family="SF Pro Display, Helvetica, Arial, sans-serif" font-size="14" fill="#FFFFFF" font-weight="700">Good Morning ☀</text>
  <text x="702" y="151" font-family="SF Pro Display, Helvetica, Arial, sans-serif" font-size="9" fill="rgba(255,255,255,0.8)">Ready for Day 1?</text>
  <rect x="700" y="171" width="145" height="70" rx="10" fill="#F2F2F7"/>
  <rect x="700" y="171" width="145" height="70" rx="10" fill="#EEF5F0"/>
  <text x="710" y="189" font-family="SF Pro Display, Helvetica, Arial, sans-serif" font-size="9" fill="#8A8A8E">ACTIVE TRIP</text>
  <text x="710" y="205" font-family="SF Pro Display, Helvetica, Arial, sans-serif" font-size="12" fill="#1A1A1A" font-weight="700">Granada, Spain</text>
  <text x="710" y="219" font-family="SF Pro Display, Helvetica, Arial, sans-serif" font-size="9" fill="#8A8A8E">3 days · 14 activities</text>
  <rect x="700" y="254" width="145" height="50" rx="10" fill="#F2F2F7"/>
  <text x="710" y="271" font-family="SF Pro Display, Helvetica, Arial, sans-serif" font-size="9" fill="#8A8A8E">UPCOMING</text>
  <text x="710" y="287" font-family="SF Pro Display, Helvetica, Arial, sans-serif" font-size="10" fill="#1A1A1A">Seville · 5 days away</text>
  <rect x="692" y="369" width="161" height="44" fill="#FFFFFF" stroke="#E5E5EA" stroke-width="1"/>
  <text x="714" y="395" text-anchor="middle" font-size="14" fill="#2A7850">🏠</text>
  <text x="772" y="395" text-anchor="middle" font-size="14" fill="#8A8A8E">📋</text>
  <text x="825" y="395" text-anchor="middle" font-size="14" fill="#8A8A8E">👤</text>
  </g>
  <!-- Label below phone -->
  <text x="772" y="442" text-anchor="middle" font-family="SF Pro Display, Helvetica, Arial, sans-serif" font-size="11" fill="#8A8A8E" font-weight="500">Home Page</text>

</svg>