<svg xmlns="http://www.w3.org/2000/svg" viewBox="0 0 920 540" style="width:100%;display:block;">
  <defs><clipPath id="clip-40-95"><rect x="47" y="114" width="151" height="304" rx="18"/></clipPath><clipPath id="clip-290-95"><rect x="297" y="114" width="151" height="304" rx="18"/></clipPath><clipPath id="clip-540-95"><rect x="547" y="114" width="151" height="304" rx="18"/></clipPath></defs>
  <rect width="920" height="540" fill="#EEF5F0"/>
  <text x="40" y="38" font-family="SF Pro Display, Helvetica, Arial, sans-serif" font-size="13" fill="#8A8A8E" font-weight="600" letter-spacing="1">EDIT ON THE GO</text>
  
  <!-- Phone shadow -->
  <rect x="43" y="98" width="165" height="330" rx="26" fill="rgba(0,0,0,0.12)"/>
  <!-- Phone body -->
  <rect x="40" y="95" width="165" height="330" rx="26" fill="#1A1A1A"/>
  <!-- Screen bg -->
  <rect x="47" y="114" width="151" height="304" rx="18" fill="#FFFFFF"/>
  <!-- Notch -->
  <rect x="87" y="95" width="70" height="22" rx="11" fill="#1A1A1A"/>
  <!-- Home bar -->
  <rect x="100" y="416" width="44" height="4" rx="2" fill="rgba(255,255,255,0.35)"/>
  <!-- Status bar: time -->
  <text x="55" y="128" font-family="SF Pro Display, Helvetica, Arial, sans-serif" font-size="9" fill="#1A1A1A" font-weight="600">9:41</text>
  <!-- Screen content -->
  <g clip-path="url(#clip-40-95)">
    
  <rect x="47" y="114" width="151" height="304" fill="#FFFFFF"/>
  <rect x="47" y="114" width="151" height="44" fill="#2A7850"/>
  <text x="122" y="140" text-anchor="middle" font-family="SF Pro Display, Helvetica, Arial, sans-serif" font-size="11" fill="#FFFFFF" font-weight="700">Edit Day 1</text>
  <!-- Activity 3 edit row -->
  <rect x="53" y="168" width="139" height="52" rx="8" fill="#F2F2F7"/>
  <rect x="59" y="177" width="18" height="18" rx="9" fill="#E0534A" opacity="0.9"/>
  <text x="68" y="189" text-anchor="middle" font-size="11" fill="#FFFFFF">−</text>
  <text x="85" y="186" font-family="SF Pro Display, Helvetica, Arial, sans-serif" font-size="9.5" fill="#1A1A1A">Casa Morisca Hotel</text>
  <text x="85" y="199" font-family="SF Pro Display, Helvetica, Arial, sans-serif" font-size="8" fill="#8A8A8E">2:00 pm · Dining</text>
  <rect x="156" y="177" width="22" height="18" rx="4" fill="#8A8A8E" opacity="0.3"/>
  <text x="167" y="189" text-anchor="middle" font-size="9" fill="#8A8A8E">≡</text>
  <!-- Replace button -->
  <rect x="53" y="234" width="139" height="28" rx="14" fill="#FFFFFF" stroke="#2A7850" stroke-width="1.5"/>
  <text x="122" y="252" text-anchor="middle" font-family="SF Pro Display, Helvetica, Arial, sans-serif" font-size="9.5" fill="#2A7850" font-weight="600">+ Replace activity</text>
  </g>
  <!-- Label below phone -->
  <text x="122" y="447" text-anchor="middle" font-family="SF Pro Display, Helvetica, Arial, sans-serif" font-size="11" fill="#8A8A8E" font-weight="500">Edit & Delete</text>
<line x1="209" y1="260" x2="286" y2="260" stroke="#CCCCCC" stroke-width="1.5" stroke-dasharray="4,3"/><polygon points="280,256 287,260 280,264" fill="#CCCCCC"/>
  <!-- Phone shadow -->
  <rect x="293" y="98" width="165" height="330" rx="26" fill="rgba(0,0,0,0.12)"/>
  <!-- Phone body -->
  <rect x="290" y="95" width="165" height="330" rx="26" fill="#1A1A1A"/>
  <!-- Screen bg -->
  <rect x="297" y="114" width="151" height="304" rx="18" fill="#FFFFFF"/>
  <!-- Notch -->
  <rect x="337" y="95" width="70" height="22" rx="11" fill="#1A1A1A"/>
  <!-- Home bar -->
  <rect x="350" y="416" width="44" height="4" rx="2" fill="rgba(255,255,255,0.35)"/>
  <!-- Status bar: time -->
  <text x="305" y="128" font-family="SF Pro Display, Helvetica, Arial, sans-serif" font-size="9" fill="#1A1A1A" font-weight="600">9:41</text>
  <!-- Screen content -->
  <g clip-path="url(#clip-290-95)">
    
  <rect x="297" y="114" width="151" height="304" fill="#FFFFFF"/>
  <rect x="297" y="114" width="151" height="44" fill="#2A7850"/>
  <text x="372" y="140" text-anchor="middle" font-family="SF Pro Display, Helvetica, Arial, sans-serif" font-size="11" fill="#FFFFFF" font-weight="700">Categories</text>
  <!-- Cat grid 2x2 -->
  <rect x="303" y="166" width="67" height="58" rx="10" fill="#EEF5F0"/><text x="336" y="188" text-anchor="middle" font-size="18" fill="#2A7850">🍽</text><text x="336" y="204" text-anchor="middle" font-family="SF Pro Display, Helvetica, Arial, sans-serif" font-size="8" fill="#1A1A1A">Dining</text><rect x="374" y="166" width="67" height="58" rx="10" fill="#F2F2F7"/><text x="407" y="188" text-anchor="middle" font-size="18" fill="#8A8A8E">🎭</text><text x="407" y="204" text-anchor="middle" font-family="SF Pro Display, Helvetica, Arial, sans-serif" font-size="8" fill="#1A1A1A">Culture</text><rect x="303" y="232" width="67" height="58" rx="10" fill="#F2F2F7"/><text x="336" y="254" text-anchor="middle" font-size="18" fill="#8A8A8E">🛍</text><text x="336" y="270" text-anchor="middle" font-family="SF Pro Display, Helvetica, Arial, sans-serif" font-size="8" fill="#1A1A1A">Shopping</text><rect x="374" y="232" width="67" height="58" rx="10" fill="#EEF5F0"/><text x="407" y="254" text-anchor="middle" font-size="18" fill="#2A7850">🏛</text><text x="407" y="270" text-anchor="middle" font-family="SF Pro Display, Helvetica, Arial, sans-serif" font-size="8" fill="#1A1A1A">History</text>
  </g>
  <!-- Label below phone -->
  <text x="372" y="447" text-anchor="middle" font-family="SF Pro Display, Helvetica, Arial, sans-serif" font-size="11" fill="#8A8A8E" font-weight="500">Browse Categories</text>
<line x1="459" y1="260" x2="536" y2="260" stroke="#CCCCCC" stroke-width="1.5" stroke-dasharray="4,3"/><polygon points="530,256 537,260 530,264" fill="#CCCCCC"/>
  <!-- Phone shadow -->
  <rect x="543" y="98" width="165" height="330" rx="26" fill="rgba(0,0,0,0.12)"/>
  <!-- Phone body -->
  <rect x="540" y="95" width="165" height="330" rx="26" fill="#1A1A1A"/>
  <!-- Screen bg -->
  <rect x="547" y="114" width="151" height="304" rx="18" fill="#FFFFFF"/>
  <!-- Notch -->
  <rect x="587" y="95" width="70" height="22" rx="11" fill="#1A1A1A"/>
  <!-- Home bar -->
  <rect x="600" y="416" width="44" height="4" rx="2" fill="rgba(255,255,255,0.35)"/>
  <!-- Status bar: time -->
  <text x="555" y="128" font-family="SF Pro Display, Helvetica, Arial, sans-serif" font-size="9" fill="#1A1A1A" font-weight="600">9:41</text>
  <!-- Screen content -->
  <g clip-path="url(#clip-540-95)">
    
  <rect x="547" y="114" width="151" height="304" fill="#FFFFFF"/>
  <rect x="547" y="114" width="151" height="44" fill="#2A7850"/>
  <text x="622" y="132" text-anchor="middle" font-family="SF Pro Display, Helvetica, Arial, sans-serif" font-size="11" fill="#FFFFFF" font-weight="700">Suggestions</text>
  <text x="622" y="147" text-anchor="middle" font-family="SF Pro Display, Helvetica, Arial, sans-serif" font-size="8" fill="rgba(255,255,255,0.75)">Near you · Dining</text>
  <!-- Suggestion 1 (selected) -->
  <rect x="553" y="166" width="139" height="52" rx="8" fill="#EEF5F0" stroke="#2A7850" stroke-width="1.5"/>
  <text x="563" y="184" font-family="SF Pro Display, Helvetica, Arial, sans-serif" font-size="9.5" fill="#1A1A1A" font-weight="600">Restaurante Arrayanes</text>
  <text x="563" y="197" font-family="SF Pro Display, Helvetica, Arial, sans-serif" font-size="8" fill="#8A8A8E">1.2 km · 4.7★ Moroccan</text>
  <circle cx="678" cy="187" r="8" fill="#2A7850"/>
  <text x="678" y="191" text-anchor="middle" font-size="9" fill="#FFFFFF">✓</text>
  <!-- Suggestion 2 -->
  <rect x="553" y="228" width="139" height="52" rx="8" fill="#FFFFFF" stroke="#E5E5EA" stroke-width="1"/>
  <text x="563" y="246" font-family="SF Pro Display, Helvetica, Arial, sans-serif" font-size="9.5" fill="#1A1A1A">El Trillo Restaurante</text>
  <text x="563" y="260" font-family="SF Pro Display, Helvetica, Arial, sans-serif" font-size="8" fill="#8A8A8E">0.8 km · 4.5★ Spanish</text>
  <!-- Suggestion 3 -->
  <rect x="553" y="290" width="139" height="52" rx="8" fill="#FFFFFF" stroke="#E5E5EA" stroke-width="1"/>
  <text x="563" y="308" font-family="SF Pro Display, Helvetica, Arial, sans-serif" font-size="9.5" fill="#1A1A1A">Bodegas Castañeda</text>
  <text x="563" y="322" font-family="SF Pro Display, Helvetica, Arial, sans-serif" font-size="8" fill="#8A8A8E">0.5 km · 4.6★ Tapas bar</text>
  <!-- Add button -->
  <rect x="553" y="352" width="139" height="28" rx="14" fill="#2A7850"/>
  <text x="622" y="370" text-anchor="middle" font-family="SF Pro Display, Helvetica, Arial, sans-serif" font-size="9.5" fill="#FFFFFF" font-weight="600">Add to Day 1</text>
  </g>
  <!-- Label below phone -->
  <text x="622" y="447" text-anchor="middle" font-family="SF Pro Display, Helvetica, Arial, sans-serif" font-size="11" fill="#8A8A8E" font-weight="500">AI Suggestions</text>

</svg>